<?xml version="1.0" standalone="no"?>
<!DOCTYPE svg PUBLIC "-//W3C//DTD SVG 20010904//EN"
 "http://www.w3.org/TR/2001/REC-SVG-20010904/DTD/svg10.dtd">
<svg version="1.0" xmlns="http://www.w3.org/2000/svg"
 width="909.000000pt" height="998.000000pt" viewBox="0 0 909.000000 998.000000"
 preserveAspectRatio="xMidYMid meet">

<g transform="translate(0.000000,998.000000) scale(0.100000,-0.100000)"
fill="#000000" stroke="none">
<path d="M14 8313 c-12 -95 3 -357 26 -468 106 -503 429 -914 893 -1136 60
-28 110 -50 112 -48 3 3 195 1680 195 1702 0 4 -274 7 -609 7 l-610 0 -7 -57z"/>
<path d="M6010 8331 c-152 -78 -363 -145 -560 -177 -82 -14 -245 -16 -1207
-14 -612 1 -1113 0 -1113 -2 -1 -2 -36 -309 -78 -683 l-78 -680 2393 -3 2393
-2 0 -26 c0 -14 -9 -71 -21 -127 -57 -283 -188 -568 -370 -809 -82 -108 -272
-302 -379 -388 -292 -232 -643 -392 -1002 -455 -167 -30 -416 -35 -1813 -35
l-1410 0 -33 -292 c-18 -161 -82 -727 -142 -1258 -60 -531 -125 -1111 -145
-1290 -20 -179 -43 -338 -50 -355 -16 -35 -200 -1687 -191 -1712 6 -14 31 -15
219 -10 230 5 323 18 501 68 660 186 1165 729 1320 1421 26 117 49 294 156
1238 33 294 63 545 65 557 l5 22 933 4 c797 3 949 6 1047 20 570 82 1006 241
1430 522 457 303 815 732 1005 1204 86 215 150 458 181 691 23 171 23 475 -1
635 -150 1029 -959 1793 -2065 1951 -86 12 -217 17 -515 20 l-400 4 -75 -39z"/>
</g>
</svg>
